<svg width="37" height="27" viewBox="0 0 37 27" fill="none" xmlns="http://www.w3.org/2000/svg">
<path d="M23.5455 16.8182C19.055 16.8182 10.0909 19.055 10.0909 23.5454V26.9091H37V23.5454C37 19.055 28.0359 16.8182 23.5455 16.8182ZM8.40909 10.0909V5.04545H5.04545V10.0909H0V13.4545H5.04545V18.5H8.40909V13.4545H13.4545V10.0909M23.5455 13.4545C25.3296 13.4545 27.0407 12.7458 28.3024 11.4842C29.564 10.2226 30.2727 8.51145 30.2727 6.72727C30.2727 4.94309 29.564 3.23198 28.3024 1.97037C27.0407 0.708764 25.3296 0 23.5455 0C21.7613 0 20.0502 0.708764 18.7886 1.97037C17.5269 3.23198 16.8182 4.94309 16.8182 6.72727C16.8182 8.51145 17.5269 10.2226 18.7886 11.4842C20.0502 12.7458 21.7613 13.4545 23.5455 13.4545Z" fill="#780103"/>
</svg>
