<svg width="40" height="32" viewBox="0 0 40 32" fill="none" xmlns="http://www.w3.org/2000/svg">
<path d="M0 2.5C0 1.83696 0.263392 1.20107 0.732233 0.732233C1.20107 0.263392 1.83696 0 2.5 0H27.5C28.163 0 28.7989 0.263392 29.2678 0.732233C29.7366 1.20107 30 1.83696 30 2.5C30 3.16304 29.7366 3.79893 29.2678 4.26777C28.7989 4.73661 28.163 5 27.5 5H2.5C1.83696 5 1.20107 4.73661 0.732233 4.26777C0.263392 3.79893 0 3.16304 0 2.5ZM0 29.1667C0 28.5036 0.263392 27.8677 0.732233 27.3989C1.20107 26.9301 1.83696 26.6667 2.5 26.6667H24.1667C24.8297 26.6667 25.4656 26.9301 25.9344 27.3989C26.4033 27.8677 26.6667 28.5036 26.6667 29.1667C26.6667 29.8297 26.4033 30.4656 25.9344 30.9344C25.4656 31.4033 24.8297 31.6667 24.1667 31.6667H2.5C1.83696 31.6667 1.20107 31.4033 0.732233 30.9344C0.263392 30.4656 0 29.8297 0 29.1667ZM2.5 13.3333C1.83696 13.3333 1.20107 13.5967 0.732233 14.0656C0.263392 14.5344 0 15.1703 0 15.8333C0 16.4964 0.263392 17.1323 0.732233 17.6011C1.20107 18.0699 1.83696 18.3333 2.5 18.3333H37.5C38.163 18.3333 38.7989 18.0699 39.2678 17.6011C39.7366 17.1323 40 16.4964 40 15.8333C40 15.1703 39.7366 14.5344 39.2678 14.0656C38.7989 13.5967 38.163 13.3333 37.5 13.3333H2.5Z" fill="#FFE500"/>
</svg>
