<svg width="40" height="37" viewBox="0 0 40 37" fill="none" xmlns="http://www.w3.org/2000/svg">
<path d="M38.9215 16.7389C39.37 16.4159 39.7027 15.9653 39.8729 15.4502C40.0431 14.9352 40.0423 14.3816 39.8707 13.867C39.699 13.3524 39.3651 12.9026 38.9157 12.5807C38.4663 12.2589 37.924 12.0811 37.3648 12.0723L26.5043 11.6756C26.4509 11.672 26.3997 11.6536 26.3568 11.6226C26.314 11.5915 26.2814 11.5492 26.2629 11.5006L22.51 1.70059C22.3214 1.20201 21.979 0.771481 21.5289 0.467306C21.0789 0.163131 20.5431 0 19.994 0C19.4449 0 18.909 0.163131 18.459 0.467306C18.009 0.771481 17.6665 1.20201 17.4779 1.70059L13.7371 11.5356C13.7186 11.5842 13.686 11.6265 13.6431 11.6576C13.6003 11.6886 13.5491 11.707 13.4957 11.7106L2.63519 12.1073C2.076 12.1161 1.53369 12.2939 1.08429 12.6157C0.634902 12.9376 0.300967 13.3874 0.129309 13.902C-0.0423477 14.4166 -0.0431179 14.9702 0.127107 15.4852C0.297332 16.0003 0.630015 16.4509 1.07851 16.7739L9.59801 23.2489C9.64065 23.2814 9.67251 23.3252 9.68967 23.3749C9.70683 23.4247 9.70852 23.4782 9.69454 23.5289L6.7622 33.5739C6.61024 34.0854 6.62496 34.6298 6.80436 35.1329C6.98375 35.6361 7.31911 36.0736 7.7648 36.3859C8.2105 36.6983 8.7449 36.8703 9.2953 36.8786C9.84571 36.8869 10.3854 36.731 10.8409 36.4323L19.8431 30.5989C19.8875 30.5693 19.9401 30.5535 19.994 30.5535C20.0479 30.5535 20.1005 30.5693 20.1448 30.5989L29.147 36.4323C29.5964 36.7412 30.1341 36.9072 30.6856 36.9072C31.237 36.9072 31.7748 36.7412 32.2242 36.4323C32.67 36.1229 33.0056 35.6875 33.185 35.1861C33.3644 34.6847 33.3786 34.1418 33.2257 33.6323L30.2693 23.5523C30.2536 23.5017 30.2545 23.4476 30.2717 23.3975C30.289 23.3474 30.3219 23.3037 30.3658 23.2723L38.9215 16.7389Z" fill="#FFE500"/>
</svg>
