<svg width="42" height="48" viewBox="0 0 42 48" fill="none" xmlns="http://www.w3.org/2000/svg">
<path d="M20.0654 1.74579L17.1519 0L16.597 3.35054C15.7137 8.6411 12.0995 13.5571 8.11311 17.0117C0.309066 23.7775 -1.39973 31.1306 1.01663 37.2004C3.32894 43.0089 9.19758 46.9861 15.1541 47.6497L16.5322 47.8024C13.1239 45.719 10.9364 40.8516 11.6995 37.2143C12.4533 33.6395 15.0246 30.2912 19.9637 27.202L22.454 25.6481L23.3836 28.4345C23.9316 30.0808 24.8797 31.4035 25.8439 32.7469C26.3064 33.3944 26.7758 34.0487 27.2058 34.7447C28.6927 37.1611 29.0858 39.848 28.1261 42.5141C27.2521 44.9374 25.8115 46.8427 23.8252 47.8995L26.0682 47.6497C31.6594 47.0277 35.7637 45.1155 38.4298 41.9175C41.0728 38.7474 42 34.6661 42 30.3213C42 26.2748 40.3375 22.1034 38.3766 18.6326C36.0782 14.5675 33.0791 11.1916 29.8049 7.91966C29.2384 9.05269 29.2823 9.51053 28.1169 11.3303C26.6035 7.31142 23.7629 3.92995 20.0654 1.74579Z" fill="#780103"/>
</svg>
