<svg width="36" height="36" viewBox="0 0 36 36" fill="none" xmlns="http://www.w3.org/2000/svg">
<path d="M18 0C8.064 0 0 8.064 0 18C0 27.936 8.064 36 18 36C27.936 36 36 27.936 36 18C36 8.064 27.936 0 18 0ZM12.15 21.024C11.916 21.798 11.034 22.158 10.314 21.834C10.0184 21.6966 9.78266 21.4568 9.65029 21.159C9.51792 20.8611 9.49792 20.5254 9.594 20.214C9.81 19.476 9.918 18.72 9.9 17.982C9.882 17.244 9.792 16.542 9.594 15.858C9.414 15.21 9.702 14.508 10.314 14.238C11.07 13.896 11.952 14.31 12.186 15.12C12.456 16.038 12.582 16.974 12.6 17.946C12.5993 18.9883 12.4477 20.0251 12.15 21.024ZM17.802 23.886C17.496 24.624 16.596 24.912 15.894 24.516C15.6096 24.3513 15.3946 24.0891 15.2887 23.778C15.1828 23.4669 15.1932 23.128 15.318 22.824C15.912 21.438 16.2 19.89 16.2 18.216C16.2 16.488 15.876 14.814 15.246 13.212C14.994 12.564 15.282 11.844 15.894 11.52C16.596 11.16 17.46 11.484 17.748 12.222C18.504 14.13 18.882 16.146 18.882 18.216C18.918 20.25 18.54 22.158 17.802 23.886ZM23.4 26.28C23.2663 26.6118 23.0063 26.8769 22.6772 27.017C22.3481 27.1571 21.9768 27.1607 21.645 27.027C21.3132 26.8933 21.0481 26.6333 20.908 26.3042C20.7679 25.9751 20.7643 25.6038 20.898 25.272C21.96 22.77 22.5 20.322 22.5 17.964C22.5 15.606 21.96 13.194 20.916 10.746C20.628 10.098 20.934 9.342 21.564 9.036C22.266 8.676 23.094 9 23.4 9.72C24.588 12.492 25.2 15.264 25.2 17.964C25.2 20.664 24.588 23.472 23.4 26.28Z"/>
</svg>
