<svg width="448" height="344" viewBox="0 0 448 344" fill="none" xmlns="http://www.w3.org/2000/svg">
<g filter="url(#filter0_d_248_287)">
<path d="M416.481 123.711L365.112 101.354L408.582 83.0759C409.642 82.6293 410.546 81.88 411.182 80.9218C411.818 79.9636 412.158 78.8391 412.158 77.6891C412.158 76.539 411.818 75.4145 411.182 74.4564C410.546 73.4982 409.642 72.7489 408.582 72.3023L285.844 20.4595C285.137 20.1611 284.378 20.005 283.61 20.0001C282.843 19.9952 282.082 20.1416 281.371 20.4308L219.923 45.4258L158.486 22.2228C157.083 21.6931 155.531 21.7226 154.149 22.3053L31.4 74.1552C30.3403 74.6018 29.4357 75.3511 28.7997 76.3093C28.1637 77.2675 27.8245 78.392 27.8245 79.542C27.8245 80.6921 28.1637 81.8166 28.7997 82.7747C29.4357 83.7329 30.3403 84.4822 31.4 84.9288L74.8706 103.207L23.508 125.561C22.4688 126.014 21.5838 126.76 20.9609 127.708C20.3381 128.655 20.0042 129.763 20 130.897C19.9959 132.031 20.3215 133.142 20.9374 134.094C21.5533 135.046 22.4327 135.798 23.4686 136.259L83.9453 163.182C83.9453 163.272 83.8951 163.344 83.8951 163.433V257.908C83.8952 259.081 84.2479 260.226 84.9075 261.196C85.5671 262.165 86.5031 262.914 87.5939 263.345L217.726 314.682L217.855 314.732C219.236 315.279 220.774 315.279 222.156 314.732L222.285 314.682L352.417 263.345C353.508 262.914 354.444 262.165 355.103 261.196C355.763 260.226 356.116 259.081 356.116 257.908V161.304L416.531 134.424C417.567 133.963 418.447 133.211 419.063 132.259C419.678 131.307 420.004 130.196 420 129.062C419.996 127.928 419.662 126.82 419.039 125.873C418.416 124.925 417.531 124.179 416.492 123.726L416.481 123.711ZM283.514 32.1721L391.25 77.6891L347.987 95.8887H347.944L235.714 51.6189L283.514 32.1721ZM219.995 57.9842L334.87 103.315L219.966 152.315L103.872 103.806L219.995 57.9842ZM344.417 111.952V153.713L280.392 182.221L233.922 159.071L344.417 111.952ZM48.7359 79.5277L156.54 33.982L203.773 51.8053L89.8016 96.7776L48.7359 79.5277ZM88.4612 110.035L206.314 159.283L159.511 184.034L40.3422 130.991L88.4612 110.035ZM95.579 168.365L157.36 195.883C158.169 196.242 159.049 196.413 159.934 196.383C160.819 196.353 161.685 196.122 162.468 195.707L214.156 168.358V300.708L95.5826 253.944L95.579 168.365ZM344.417 253.944L225.844 300.705V168.096L277.647 193.901C278.418 194.285 279.265 194.494 280.126 194.512C280.987 194.531 281.842 194.359 282.629 194.008L344.417 166.494V253.944ZM356.105 148.527V110.182L399.636 129.13L356.105 148.527Z" fill="#FFE500"/>
</g>
<defs>
<filter id="filter0_d_248_287" x="0" y="0" width="448" height="343.143" filterUnits="userSpaceOnUse" color-interpolation-filters="sRGB">
<feFlood flood-opacity="0" result="BackgroundImageFix"/>
<feColorMatrix in="SourceAlpha" type="matrix" values="0 0 0 0 0 0 0 0 0 0 0 0 0 0 0 0 0 0 127 0" result="hardAlpha"/>
<feOffset dx="4" dy="4"/>
<feGaussianBlur stdDeviation="12"/>
<feComposite in2="hardAlpha" operator="out"/>
<feColorMatrix type="matrix" values="0 0 0 0 1 0 0 0 0 0.898039 0 0 0 0 0 0 0 0 0.5 0"/>
<feBlend mode="normal" in2="BackgroundImageFix" result="effect1_dropShadow_248_287"/>
<feBlend mode="normal" in="SourceGraphic" in2="effect1_dropShadow_248_287" result="shape"/>
</filter>
</defs>
</svg>
