<svg width="42" height="42" viewBox="0 0 42 42" fill="none" xmlns="http://www.w3.org/2000/svg">
<path d="M21 0C22.7895 0 24.5033 0.714105 25.7614 1.97849L27.2274 3.44451C27.6991 3.91345 28.337 4.17693 29.0022 4.17751H31.1025C32.885 4.17751 34.5945 4.88562 35.8549 6.14605C37.1154 7.40648 37.8235 9.11599 37.8235 10.8985V12.9988C37.8235 13.6625 38.0881 14.301 38.5523 14.7694L40.0183 16.2354C40.646 16.8596 41.1442 17.6017 41.4843 18.419C41.8243 19.2363 41.9996 20.1128 42 20.998C42.0004 21.8833 41.8259 22.7599 41.4865 23.5775C41.1472 24.3951 40.6496 25.1376 40.0225 25.7624L38.5565 27.2284C38.0875 27.7001 37.8241 28.338 37.8235 29.0032V31.1035C37.8235 32.886 37.1154 34.5955 35.8549 35.8559C34.5945 37.1164 32.885 37.8245 31.1025 37.8245H29.0022C28.3391 37.825 27.703 38.0869 27.2316 38.5533L25.7656 40.0193C25.1414 40.647 24.3993 41.1452 23.582 41.4853C22.7647 41.8253 21.8882 42.0006 21.003 42.001C20.1177 42.0014 19.2411 41.8269 18.4235 41.4875C17.6059 41.1482 16.8634 40.6506 16.2386 40.0235L14.7726 38.5575C14.3009 38.0885 13.663 37.825 12.9978 37.8245H10.8975C9.115 37.8245 7.40549 37.1164 6.14506 35.8559C4.88463 34.5955 4.17653 32.886 4.17653 31.1035V29.0032C4.17595 28.3401 3.9141 27.7039 3.44772 27.2326L1.9817 25.7666C1.35401 25.1424 0.855819 24.4003 0.515739 23.583C0.175659 22.7657 0.000390973 21.8892 6.53367e-07 21.004C-0.000389666 20.1187 0.174105 19.2421 0.513464 18.4245C0.852824 17.6069 1.35036 16.8644 1.9775 16.2396L3.44352 14.7736C3.91246 14.3019 4.17594 13.6639 4.17653 12.9988V10.8985L4.18703 10.5162C4.28465 8.80262 5.03419 7.19127 6.28194 6.01264C7.5297 4.83401 9.1811 4.17742 10.8975 4.17751H12.9978C13.6609 4.17694 14.297 3.91509 14.7684 3.44871L16.2344 1.98269C16.8589 1.35447 17.6014 0.855887 18.4193 0.515625C19.2371 0.175362 20.1142 0.000128279 21 0ZM26.2298 23.0803C25.3942 23.0803 24.5929 23.4122 24.0021 24.003C23.4112 24.5939 23.0793 25.3952 23.0793 26.2308C23.0793 27.0663 23.4112 27.8676 24.0021 28.4585C24.5929 29.0493 25.3942 29.3812 26.2298 29.3812C27.0653 29.3812 27.8667 29.0493 28.4575 28.4585C29.0483 27.8676 29.3802 27.0663 29.3802 26.2308C29.3802 25.3952 29.0483 24.5939 28.4575 24.003C27.8667 23.4122 27.0653 23.0803 26.2298 23.0803ZM28.7648 13.1941C28.371 12.8004 27.8368 12.5792 27.2799 12.5792C26.723 12.5792 26.1889 12.8004 25.795 13.1941L13.1932 25.796C12.8106 26.1921 12.5989 26.7227 12.6037 27.2734C12.6084 27.824 12.8293 28.3508 13.2187 28.7402C13.6082 29.1297 14.1349 29.3505 14.6856 29.3553C15.2363 29.3601 15.7669 29.1484 16.163 28.7658L28.7648 16.164C29.1586 15.7701 29.3798 15.236 29.3798 14.6791C29.3798 14.1221 29.1586 13.588 28.7648 13.1941ZM15.7282 12.5788C14.8927 12.5788 14.0913 12.9107 13.5005 13.5015C12.9097 14.0923 12.5778 14.8937 12.5778 15.7292C12.5778 16.5648 12.9097 17.3661 13.5005 17.9569C14.0913 18.5478 14.8927 18.8797 15.7282 18.8797C16.5638 18.8797 17.3651 18.5478 17.9559 17.9569C18.5468 17.3661 18.8787 16.5648 18.8787 15.7292C18.8787 14.8937 18.5468 14.0923 17.9559 13.5015C17.3651 12.9107 16.5638 12.5788 15.7282 12.5788Z" fill="#34964B"/>
</svg>
